Coordinates
version=1
nRows=19
nColumns=24
inDegrees=yes

Units are S.I. units (second, meters, Newtons, ...)
Angles are in degrees.

endheader
time	pelvis_tilt	pelvis_list	pelvis_rotation	pelvis_tx	pelvis_ty	pelvis_tz	hip_flexion_r	hip_adduction_r	hip_rotation_r	knee_angle_r	ankle_angle_r	subtalar_angle_r	mtp_angle_r	hip_flexion_l	hip_adduction_l	hip_rotation_l	knee_angle_l	ankle_angle_l	subtalar_angle_l	mtp_angle_l	lumbar_extension	lumbar_bending	lumbar_rotation
      1.45383333	      1.00547098	      4.54801130	     -0.82478860	      0.22480503	      1.02687421	      0.28984540	     13.00901071	     -7.26662741	     -9.06528663	    -68.94959249	     -2.80329847	     -6.29590225	      2.09000755	      7.79106513	      8.95337554	      3.96954054	    -13.24782203	      5.20204502	    -13.31825264	      0.98353882	     -3.16610914	     -7.29380951	      3.22749281
      1.45800000	      0.98716875	      4.39079332	     -0.87570485	      0.22951334	      1.02758217	      0.28961136	     13.71228263	     -7.11685512	     -9.05404327	    -68.92008641	     -2.30079872	     -6.21020600	      2.07178495	      7.36245819	      8.80083155	      4.00802848	    -12.94267542	      5.25183254	    -13.36907078	      0.99819480	     -3.23536128	     -7.05689362	      3.20228673
      1.46216667	      0.99376602	      4.25089243	     -0.92101797	      0.23424168	      1.02831706	      0.28938086	     14.37095383	     -6.98773466	     -9.05008926	    -68.83360478	     -1.79532565	     -6.06940352	      2.04179460	      6.88784911	      8.66942183	      4.08474798	    -12.59657713	      5.28423774	    -13.44697254	      1.01876501	     -3.30646074	     -6.87626241	      3.16077839
      1.46633333	      1.00160767	      4.09217294	     -0.95506948	      0.23892375	      1.02901645	      0.28912429	     15.01482531	     -6.83558834	     -9.06219261	    -68.68732067	     -1.33817749	     -6.01822311	      2.02685796	      6.43137014	      8.51808725	      4.13883794	    -12.28906321	      5.33158317	    -13.50317438	      1.03250958	     -3.40903304	     -6.64291549	      3.12251726
      1.47050000	      0.99097797	      3.94602767	     -0.98928925	      0.24364718	      1.02966697	      0.28888874	     15.66100902	     -6.69017131	     -9.07073439	    -68.48038567	     -0.92354543	     -6.03979592	      2.02674931	      5.98726318	      8.37632768	      4.17841925	    -11.96812418	      5.39993511	    -13.51601488	      1.03932218	     -3.45132211	     -6.45538766	      3.08595255
      1.47466667	      0.99702139	      3.80090296	     -1.00269196	      0.24830813	      1.03028937	      0.28857633	     16.28023549	     -6.56274904	     -9.10595237	    -68.24055789	     -0.44987139	     -5.89598570	      2.01533935	      5.52946991	      8.24711493	      4.29010050	    -11.65094555	      5.42551970	    -13.61795293	      1.05277558	     -3.56530485	     -6.23593412	      3.00749210
      1.47883333	      0.98505086	      3.64975751	     -1.01928136	      0.25299826	      1.03087130	      0.28831039	     16.89991649	     -6.41288965	     -9.13667912	    -67.93108152	     -0.05798216	     -5.95265352	      2.01701075	      5.09869145	      8.10142443	      4.33319993	    -11.35086160	      5.49052864	    -13.63789618	      1.05811991	     -3.61319864	     -6.03269413	      2.96628569
      1.48300000	      1.02335225	      3.50406428	     -1.01873929	      0.25765496	      1.03149997	      0.28798208	     17.44559072	     -6.28427734	     -9.18994590	    -67.56897078	      0.37562469	     -5.86182906	      2.00544261	      4.60087267	      7.97332675	      4.47764013	    -11.02092697	      5.50126824	    -13.77163453	      1.07032933	     -3.76648648	     -5.81444587	      2.84238572
      1.48716667	      1.00388732	      3.35851062	     -1.02030734	      0.26231322	      1.03200927	      0.28768351	     18.04220474	     -6.14202808	     -9.23318093	    -67.15019265	      0.75556169	     -5.92848846	      2.00884365	      4.19087327	      7.83391725	      4.52153852	    -10.74103597	      5.56755919	    -13.78505272	      1.07410617	     -3.81435387	     -5.60828903	      2.80321168
      1.49133333	      0.99060812	      3.21054960	     -1.01402039	      0.26696697	      1.03249495	      0.28736113	     18.61344031	     -6.00118206	     -9.28773475	    -66.67725442	      1.13631824	     -5.96189511	      2.01377411	      3.77410941	      7.69378684	      4.58817267	    -10.46107795	      5.63793056	    -13.80545708	      1.07726267	     -3.87650849	     -5.39326131	      2.74582514
      1.49550000	      1.00436513	      3.05984780	     -0.99476579	      0.27159913	      1.03299079	      0.28701233	     19.13424862	     -5.86218258	     -9.35713376	    -66.14577960	      1.51787575	     -5.97897256	      2.01938066	      3.33228336	      7.55234532	      4.67046934	    -10.18633204	      5.70398668	    -13.84162621	      1.07988417	     -3.98118755	     -5.16783914	      2.66399382
      1.49966667	      1.02111263	      2.91724073	     -0.97100636	      0.27619648	      1.03346341	      0.28666002	     19.63786639	     -5.72932335	     -9.42071388	    -65.56165118	      1.88071713	     -5.96589223	      2.02398281	      2.88577914	      7.42216508	      4.80374399	     -9.90336011	      5.74094440	    -13.91869896	      1.08077708	     -4.13502343	     -4.95536509	      2.52630751
      1.50383333	      1.01454088	      2.78202595	     -0.95210558	      0.28084797	      1.03386884	      0.28631996	     20.14606697	     -5.60151485	     -9.48507069	    -64.92105986	      2.23572147	     -6.03954712	      2.02997082	      2.46937857	      7.29306155	      4.86457114	     -9.63166430	      5.80936708	    -13.93835044	      1.08124684	     -4.18089590	     -4.75479487	      2.45504511
      1.50800000	      1.01005238	      2.63540328	     -0.91245253	      0.28544369	      1.03423984	      0.28595489	     20.63203492	     -5.46271984	     -9.56105381	    -64.22160663	      2.55816122	     -6.05962039	      2.03589585	      2.06042705	      7.15469644	      4.99537464	     -9.37791569	      5.86595418	    -14.00575314	      1.07906825	     -4.29793015	     -4.54219099	      2.30821475
      1.51216667	      1.04692663	      2.50842905	     -0.88558691	      0.29007290	      1.03464982	      0.28560811	     21.05254970	     -5.34299121	     -9.62683618	    -63.46523486	      2.86969529	     -6.11996037	      2.04237641	      1.59271675	      7.03541814	      5.10505368	     -9.09259895	      5.91707254	    -14.06425263	      1.07303792	     -4.42236512	     -4.34869771	      2.16509602
      1.51633333	      1.01229964	      2.38877337	     -0.85467743	      0.29469530	      1.03490116	      0.28526566	     21.53886034	     -5.22474017	     -9.68343322	    -62.66775489	      3.20032608	     -6.19910355	      2.04895541	      1.22902027	      6.91921161	      5.16137369	     -8.86103176	      5.99359688	    -14.06771544	      1.07107694	     -4.45548156	     -4.16066564	      2.10813549
      1.52050000	      1.00270705	      2.24273778	     -0.80509559	      0.29929643	      1.03518423	      0.28491066	     21.96367105	     -5.07701244	     -9.75746885	    -61.78704114	      3.46712426	     -6.26101713	      2.05419664	      0.84168144	      6.77440932	      5.26387031	     -8.63659581	      6.07336064	    -14.09225918	      1.06585532	     -4.55091519	     -3.95736921	      1.99015436
      1.52466667	      1.02742898	      2.11406060	     -0.76046395	      0.30392565	      1.03549353	      0.28456465	     22.32864829	     -4.94873837	     -9.82838911	    -60.85044783	      3.71049842	     -6.35019210	      2.05861523	      0.40371793	      6.64758557	      5.37269340	     -8.38452684	      6.14560982	    -14.12412071	      1.05541750	     -4.67180322	     -3.75990800	      1.83603045
      1.52883333	      1.03105767	      2.00398649	     -0.71829459	      0.30855264	      1.03571294	      0.28422882	     22.70332517	     -4.83410733	     -9.88323735	    -59.87106344	      3.93931153	     -6.45386768	      2.06257807	     -0.00740711	      6.54016721	      5.47932618	     -8.13855170	      6.21360466	    -14.15850422	      1.03937521	     -4.76074019	     -3.59016146	      1.68780519
